<?xml version="1.0" encoding="utf-8"?>
<!-- Generator: Adobe Illustrator 21.0.2, SVG Export Plug-In . SVG Version: 6.00 Build 0)  -->
<svg version="1.1" id="Layer_1" xmlns="http://www.w3.org/2000/svg" xmlns:xlink="http://www.w3.org/1999/xlink" x="0px" y="0px"
	 viewBox="0 0 200 200" style="enable-background:new 0 0 200 200;" xml:space="preserve">
<style type="text/css">
	.st0{fill:none;stroke:#FFFFFF;stroke-width:2;stroke-miterlimit:10;}
</style>
<g>
	<path class="st0" d="M150,52.2c-0.2,0.5-0.5,1.1-0.7,1.6c-0.8,1.7-1.5,3.3-2.3,5c-0.5,1-0.7,1-1.7,0.7c-1.4-0.5-2.9-0.8-4.3-1.2
		c-5.3-1.4-10.6-2.8-15.8-4.2c-2-0.5-4.1-0.8-6.1-0.9c-2.4-0.2-4.8-0.4-7.1-0.6c-2-0.2-4-0.3-6-0.5c-1.9-0.1-3.8-0.3-5.6-0.3
		c-2,0-4,0.2-5.9,0.4c-1.9,0.1-3.7,0.3-5.6,0.5c-2.3,0.2-4.6,0.4-6.9,0.6c-2,0.2-4.1,0.4-6.1,0.8c-2.6,0.5-5.2,1.3-7.7,1.9
		c-4.1,1.1-8.2,2.2-12.3,3.4c-0.3,0.1-0.7,0.3-1,0.4c-0.5,0.2-0.8,0.1-1.1-0.4c-1.1-2.1-2.1-4.2-3.2-6.3c-0.1-0.1-0.1-0.2-0.2-0.4
		c-0.2-0.6,0-1,0.6-1.2c1.6-0.5,3.3-0.9,4.9-1.3c4.7-1.3,9.4-2.6,14.1-3.8c2.9-0.8,5.9-1.3,9-1.5c3.2-0.3,6.4-0.5,9.6-0.7
		c3-0.2,5.9-0.4,8.9-0.6c0.1,0,0.2-0.1,0.3-0.1c1,0,2,0,2.9,0c0.1,0,0.2,0.1,0.3,0.1c0.9,0.1,1.9,0.2,2.8,0.2
		c3.5,0.2,7,0.4,10.5,0.7c2.5,0.2,5,0.3,7.5,0.5c3.2,0.3,6.4,0.9,9.5,1.7c6.1,1.6,12.2,3.3,18.2,5C149.6,51.5,149.8,51.7,150,52.2
		C150,52.1,150,52.1,150,52.2z"/>
	<path class="st0" d="M100.5,142.7c-0.2-0.7-0.3-1.4-0.5-2.1c-2.2-9.8-4.4-19.6-6.6-29.4c-1.9-8.8-3.8-17.6-5.7-26.3
		c-1.1-5.2-2.2-10.4-3.3-15.6c-0.2-1-0.1-0.8-1-0.7c-2.5,0.3-4.9,0.6-7.4,0.9c-1.4,0.2-2.7,0.5-3.9,1.1c-0.9,0.5-1.6,1.1-2,2.1
		c-0.3,0.8-0.7,1.6-1.1,2.5c-0.2,0.4-0.5,0.6-1,0.4c-0.2-0.1-0.4-0.2-0.6-0.3c-1.4-1.2-3-2.1-4.6-3c-0.8-0.4-1.5-1-2.2-1.6
		c-1.1-0.8-2.1-1.7-3.1-2.5c-1.2-1-1.9-2.4-2.6-3.7c-0.1-0.2-0.3-0.5-0.4-0.7c0.1-0.1,0.2-0.1,0.4-0.2c4.4-1.9,8.9-3.5,13.5-5
		c1.4-0.4,2.9-0.7,4.4-0.9c2.2-0.4,4.4-0.9,6.6-1.2c2.9-0.4,5.9-0.8,8.8-1.1c0.1,0,0.4,0.1,0.5,0.3c2.5,3,4.9,6,7.3,9
		c1.3,1.6,2.5,3.1,3.9,4.8c0.1-0.1,0.1-0.2,0.2-0.3c3.6-4.5,7.2-8.9,10.9-13.4c0.2-0.3,0.4-0.4,0.9-0.4c5.5,0.7,11,1.5,16.5,2.5
		c3.2,0.6,6.2,1.7,9.2,2.8c2.5,0.9,5,1.9,7.4,2.9c0.1,0,0.1,0.1,0.2,0.1c-1.1,2.1-2.3,4.1-4.2,5.6c-0.9,0.7-1.7,1.4-2.6,2
		c-0.8,0.6-1.7,1.1-2.6,1.7c-1.1,0.7-2.1,1.4-3.2,2.1c-0.3,0.2-0.6,0.4-1,0.5c-0.4,0.1-0.7,0-0.9-0.4c-0.3-0.8-0.7-1.6-1-2.4
		c-0.4-1.1-1.2-1.9-2.3-2.3c-1.5-0.6-3.1-0.9-4.7-1.1c-2.1-0.2-4.2-0.4-6.2-0.6c-0.7-0.1-1,0.1-1.1,0.8c-0.8,3.6-1.6,7.2-2.4,10.8
		c-1.6,7.4-3.3,14.8-4.9,22.2c-0.8,3.8-1.4,7.6-2.1,11.3c-1,5.3-2,10.7-3,16c-0.8,4.2-1.6,8.4-2.4,12.7
		C100.6,142.6,100.6,142.7,100.5,142.7C100.5,142.7,100.5,142.7,100.5,142.7z"/>
</g>
</svg>
