<?xml version="1.0" encoding="utf-8"?>
<!-- Generator: Adobe Illustrator 21.0.2, SVG Export Plug-In . SVG Version: 6.00 Build 0)  -->
<svg version="1.1" id="Layer_1" xmlns="http://www.w3.org/2000/svg" xmlns:xlink="http://www.w3.org/1999/xlink" x="0px" y="0px"
	 viewBox="0 0 200 200" style="enable-background:new 0 0 200 200;" xml:space="preserve">
<style type="text/css">
	.st0{fill:none;stroke:#FFFFFF;stroke-width:1.6275;stroke-miterlimit:10;}
</style>
<g>
	<path class="st0" d="M100,142.3C100,142.3,100,142.3,100,142.3c-0.2-0.3-0.3-0.6-0.4-0.9c-0.2-0.3-0.3-0.6-0.5-0.9
		c-2.1-2.4-4.1-4.8-6.2-7.2c-6.2-7.1-11.3-14.9-15.3-23.4c-2.8-5.9-5-12-6.6-18.2c-1.1-4.3-1.8-8.6-2.6-13c-0.2-1.2-0.2-2.5-0.8-3.6
		c-0.1-0.3-0.1-0.6-0.1-1c0-1.5,0.3-3,0.7-4.4c1.3-4.8,3.5-9.2,6.5-13.2c3.1-4.1,6.9-7.4,11.5-9.8c5.2-2.6,10.7-3.7,16.5-3.5
		c2.6,0.1,5.2,0.6,7.7,1.4c4.8,1.6,8.8,4.4,12.2,8c3.5,3.7,6.2,8,8.1,12.8c0.7,1.9,1.4,3.8,1.7,5.7c0.1,0.5,0.2,1,0.2,1.5
		c0,0.5,0,1,0,1.5c0,0.1-0.1,0.3-0.1,0.4c-0.1,0.4-0.2,0.7-0.3,1.1c-0.6,3.2-1.1,6.3-1.7,9.5c-0.8,4.3-1.9,8.6-3.2,12.7
		c-1.8,5.4-3.9,10.6-6.6,15.6c-3.2,6.1-6.9,11.8-11.2,17c-2.4,2.9-5,5.8-7.5,8.7C101.1,140.2,100.4,141.1,100,142.3z M119.1,75.8
		c0.2-10.6-8.4-19.2-18.8-19.4c-10.5-0.2-19.3,8.2-19.4,19c0,10.6,8.5,18.9,18.7,19.1C110.2,94.7,118.9,86.3,119.1,75.8z"/>
</g>
</svg>
