<?xml version="1.0" encoding="utf-8"?>
<!-- Generator: Adobe Illustrator 21.0.2, SVG Export Plug-In . SVG Version: 6.00 Build 0)  -->
<svg version="1.1" id="Layer_1" xmlns="http://www.w3.org/2000/svg" xmlns:xlink="http://www.w3.org/1999/xlink" x="0px" y="0px"
	 viewBox="0 0 200 200" style="enable-background:new 0 0 200 200;" xml:space="preserve">
<style type="text/css">
	.st0{fill:none;stroke:#FFFFFF;stroke-width:2;stroke-miterlimit:10;}
</style>
<g>
	<path class="st0" d="M85.4,76.2c-6.3,0-12.4,0-18.4,0c-1.2-16.5,11.4-31.3,27.5-32.7c10.5-0.9,20.5,0.2,29.2,7
		c11.9,9.4,12.8,27.9,1.8,38.2c-2.5,2.3-5.2,4.4-7.9,6.5c-5.6,4.3-10.2,9.2-9,17.6c-6.1,0-11.8,0-17.9,0c-0.9-8.7,1.1-16.3,7.1-22.6
		c2.5-2.6,5.8-4.5,8-7.3c2.5-3.3,5.5-7.1,6.1-11c1.1-7.4-2-11.4-8.2-12.9c-6.7-1.7-12.6,1-15.4,7.5C86.9,69.4,86.4,72.6,85.4,76.2z"
		/>
	<path class="st0" d="M88.7,122.5c7.1,0,13.6,0,20.4,0c0,6.7,0,13,0,19.8c-6.6,0-13.3,0-20.4,0C88.7,135.9,88.7,129.4,88.7,122.5z"
		/>
</g>
</svg>
