<?xml version="1.0" encoding="utf-8"?>
<!-- Generator: Adobe Illustrator 21.0.2, SVG Export Plug-In . SVG Version: 6.00 Build 0)  -->
<svg version="1.1" id="Layer_1" xmlns="http://www.w3.org/2000/svg" xmlns:xlink="http://www.w3.org/1999/xlink" x="0px" y="0px"
	 viewBox="0 0 200 200" style="enable-background:new 0 0 200 200;" xml:space="preserve">
<style type="text/css">
	.st0{fill:none;stroke:#FFFFFF;stroke-width:2.1667;stroke-miterlimit:10;}
</style>
<g>
	<path class="st0" d="M35,106.9c0-0.7,0-1.4,0-2c0.1-0.5,0.2-1,0.2-1.5c-0.1-0.9,0.3-1.6,1-2.1c1-0.7,1.9-1.5,3-2
		c6.4-2.9,13.1-4.5,20-5c3.7-0.2,7.3-1,10.7-2.5c5-2.2,10-4.3,15.1-6.3c6-2.4,12.1-4,18.6-4.4c0.8,0,1.6-0.1,2.4-0.2c2,0,4,0,6,0
		c0.2,0,0.3,0.1,0.5,0.1c2.6,0.2,5.2,0.2,7.8,0.5c3.7,0.4,7.4,1,11.1,1.6c5.4,0.9,10.7,2.2,15.8,4.3c4.4,1.8,9,3,13.8,3.8
		c1,0.2,0.9,0.2,1,1.1c0.1,2.1,0.2,4.2,0.4,6.3c0.2,1.9,0.8,3.7,2.2,5.1c0.1,0.1,0.2,0.4,0.3,0.6c0.7,3.2,0,6-2.3,8.4
		c-0.3,0.3-0.8,0.6-1.2,0.6c-2.4,0.5-4.8,0.8-7.1,1.3c-2,0.4-4,0.8-6,0.6c-0.4,0-0.6,0.1-0.9,0.4c-4,6-12.8,5.9-16.6-0.2
		c-0.2-0.3-0.5-0.5-0.9-0.5c-2.1,0-4.3,0-6.4-0.1c-4,0-8-0.1-11.9-0.1c-4,0-8-0.1-12-0.1c-5,0-9.9-0.1-14.9-0.1
		c-6-0.1-12-0.1-18-0.2c-0.4,0-0.7,0.1-0.9,0.5c-1.9,3.4-4.9,5.2-8.8,5.1c-3.9,0-6.8-1.9-8.7-5.3c-0.2-0.4-0.4-0.5-0.8-0.5
		c-3.1,0-6.2,0-9.2-0.1c-1.6,0-2.3-0.8-2.1-2.4c0.1-0.8,0.3-1.6,0.5-2.4c0.1-0.4,0-0.5-0.3-0.6c-0.6-0.2-0.9-0.7-1-1.3
		C35.1,107.2,35,107.1,35,106.9z"/>
</g>
</svg>
